<svg width="70" height="70" viewBox="0 0 80 89" fill="none" xmlns="http://www.w3.org/2000/svg">
<path d="M42.2939 1.13048C42.2939 0.392715 44.2676 0.594507 44.8502 0.651162C47.6609 0.924435 50.256 1.70035 52.9986 2.24888C60.4463 3.73843 67.3659 7.34371 72.97 12.4743C74.9955 14.3286 77.3831 16.4427 78.7218 18.8651C79.1743 18.6943 79.5756 18.4585 80 18.226C79.5733 16.5852 77.8119 15.094 76.6983 13.8667C73.1043 9.90529 68.5623 6.52467 63.7033 4.27672C42.901 -5.34713 17.4206 1.58666 5.77442 21.9008C-5.64052 41.8117 0.385796 67.5744 19.2868 80.541C22.8411 82.9792 26.8179 84.9291 30.9501 86.1737C44.4006 90.2247 58.9969 87.8411 70.4137 79.6456C73.0614 77.745 75.5488 75.5043 77.6707 73.0277C78.379 72.2009 79.4683 71.2012 79.8409 70.1582C80.117 69.3851 79.1729 68.9639 78.6082 69.4108C77.4758 70.3073 76.6609 71.8061 75.6719 72.8679C73.6569 75.0312 71.3917 77.0273 68.9758 78.7325C51.3985 91.1401 26.2471 88.5268 12.0763 72.0691C9.21941 68.7513 5.46909 64.18 4.53171 59.7667C3.87217 56.6615 6.04858 51.9046 9.70048 52.6838C12.4244 53.2649 14.7456 55.2181 17.2369 56.3335C26.7999 60.6155 38.5554 66.3537 48.0457 58.6794C49.4605 57.5353 50.761 56.1105 51.6198 54.4942C57.5514 43.3286 47.7031 32.2099 41.1437 23.9778C39.1243 21.4435 36.5685 18.7757 35.4788 15.6697C33.8389 10.9954 33.7178 5.81965 38.1398 2.59382C39.313 1.73799 40.8082 0.886282 42.2939 1.13048Z" fill="#AFF1F5"/>
<path d="M42.4536 0.651269V0.811041C43.3745 0.990736 44.3867 0.811041 45.3295 0.811041C44.4952 0.460901 43.3534 0.651269 42.4536 0.651269Z" fill="#D1F1FE"/>
<path d="M42.1343 0.810547V0.970318H42.7734C42.5327 0.861194 42.4035 0.838363 42.1343 0.810547Z" fill="white"/>
<path d="M43.2524 0.810547V0.970318H43.8915C43.6509 0.861194 43.5217 0.838363 43.2524 0.810547Z" fill="#54B8E7"/>
<path d="M12.2568 53.8553C13.9523 56.1797 17.2449 57.66 19.6063 59.2343C22.6749 61.2799 25.7005 63.54 29.1926 64.8099C38.0866 68.044 48.9032 66.753 54.8152 58.8082C56.1528 57.0108 57.4685 54.902 58.1044 52.7369C58.8763 50.1087 58.8245 47.1262 58.5634 44.4288C57.7774 36.3062 51.4964 28.774 45.968 23.1792C42.4943 19.6636 37.2643 15.0233 36.7762 9.75835C36.0797 2.24715 45.4631 1.76977 50.602 1.76977C49.5659 1.14815 47.9556 1.08829 46.7675 0.94613C41.1608 0.275233 35.7739 2.93193 34.9906 8.95949C34.8001 10.4252 35.0072 11.9958 35.3096 13.4331C35.9901 16.6661 38.3426 19.4584 40.241 22.0608C46.9402 31.2441 58.5197 42.1297 52.075 54.3346C51.2211 55.9517 50.0828 57.3762 48.6848 58.5542C46.7232 60.2069 44.4054 61.5188 41.9744 62.335C38.5014 63.5012 35.0938 62.9324 31.5892 62.1612C27.1295 61.1799 22.8618 59.193 18.8075 57.1514C16.8913 56.1865 14.3649 54.0839 12.2568 53.8553Z" fill="#27BFFF"/>
<path d="M46.4478 0.810547V0.970318H47.2466C46.964 0.845872 46.7615 0.824543 46.4478 0.810547Z" fill="#75DBF9"/>
<path d="M42.4007 1.0235C42.3296 1.09455 42.4984 1.08564 42.5071 1.07677C42.5782 1.00577 42.4095 1.0146 42.4007 1.0235Z" fill="#54B8E7"/>
<path d="M47.8862 0.970703V1.13047H48.3655C48.1662 1.02106 48.1182 1.01084 47.8862 0.970703Z" fill="#75DBF9"/>
<path d="M41.4418 1.18366C41.3707 1.25471 41.5394 1.24578 41.5482 1.23693C41.6193 1.16592 41.4505 1.17476 41.4418 1.18366Z" fill="#A5D9F2"/>
<path d="M48.6317 1.18365C48.5606 1.25469 48.7293 1.24579 48.7381 1.23692C48.8092 1.16592 48.6405 1.17477 48.6317 1.18365Z" fill="#75DBF9"/>
<path d="M49.1641 1.29004V1.44981H49.8031C49.5625 1.34069 49.4333 1.31786 49.1641 1.29004Z" fill="#54B8E7"/>
<path d="M40.4833 1.50299C40.4122 1.57404 40.5809 1.56512 40.5897 1.55626C40.6608 1.48527 40.492 1.49409 40.4833 1.50299Z" fill="#A5D9F2"/>
<path d="M50.1226 1.4502V1.60997H50.7616C50.521 1.50083 50.3918 1.47801 50.1226 1.4502Z" fill="#75DBF9"/>
<path d="M40.0038 1.66315C39.9327 1.73418 40.1014 1.72528 40.1102 1.71641C40.1813 1.6454 40.0126 1.65426 40.0038 1.66315Z" fill="#B5DFF5"/>
<path d="M50.6019 1.60938C50.3656 1.76686 50.4097 1.76915 50.1226 1.76915V1.92892C50.4332 1.90633 50.7361 1.93451 50.6019 1.60938Z" fill="#54B8E7"/>
<path d="M50.815 1.71662C50.8062 1.72547 50.7972 1.89414 50.8683 1.82312C50.8771 1.81422 50.8861 1.64563 50.815 1.71662Z" fill="#899DB5"/>
<path d="M39.6844 1.8233C39.6133 1.89435 39.7821 1.88543 39.7908 1.87657C39.8619 1.80556 39.6932 1.81442 39.6844 1.8233Z" fill="#B5DFF5"/>
<path d="M44.9569 1.8233C44.8858 1.89435 45.0545 1.88543 45.0633 1.87657C45.1344 1.80556 44.9657 1.81442 44.9569 1.8233Z" fill="#54B8E7"/>
<path d="M45.2762 1.8233C45.2051 1.89435 45.3738 1.88543 45.3826 1.87657C45.4537 1.80556 45.285 1.81442 45.2762 1.8233Z" fill="#A5D9F2"/>
<path d="M45.4893 1.76953V1.9293H45.9686C45.7692 1.81989 45.7212 1.80967 45.4893 1.76953Z" fill="#C0ECF9"/>
<path d="M48.8447 1.76953V1.9293H49.6436C49.3609 1.80486 49.1585 1.78353 48.8447 1.76953Z" fill="#B5DFF5"/>
<path d="M49.6436 1.76953V1.9293H50.1229C49.9235 1.81989 49.8755 1.80967 49.6436 1.76953Z" fill="#88CBEC"/>
<path d="M50.9219 1.76953V1.9293H51.4012C51.2018 1.81989 51.1539 1.80967 50.9219 1.76953Z" fill="#3B5F85"/>
<path d="M51.4009 1.76953V1.9293H51.8802C51.6808 1.81989 51.6329 1.80967 51.4009 1.76953Z" fill="#77B1C3"/>
<path d="M39.3646 1.98248C39.2935 2.05352 39.4622 2.04462 39.471 2.03575C39.5421 1.96476 39.3734 1.97358 39.3646 1.98248Z" fill="#B5DFF5"/>
<path d="M44.0513 1.92969V2.08946H44.5306C44.3312 1.98005 44.2833 1.96982 44.0513 1.92969Z" fill="#6FC1E9"/>
<path d="M44.6371 1.98248C44.566 2.05353 44.7347 2.0446 44.7435 2.03575C44.8146 1.96476 44.6459 1.97358 44.6371 1.98248Z" fill="#D1F1FE"/>
<path d="M51.6669 1.98248C51.5958 2.05353 51.7645 2.04459 51.7733 2.03575C51.8444 1.96476 51.6756 1.97358 51.6669 1.98248Z" fill="#B5DFF5"/>
<path d="M51.8804 1.92969V2.08946H52.6792C52.3966 1.96501 52.1942 1.94368 51.8804 1.92969Z" fill="#93C9D5"/>
<path d="M43.6783 2.14264C43.6072 2.21369 43.7759 2.20477 43.7847 2.19591C43.8558 2.12492 43.687 2.13374 43.6783 2.14264ZM38.8851 2.30241C38.814 2.37346 38.9827 2.36455 38.9915 2.35568C39.0626 2.28468 38.8939 2.29353 38.8851 2.30241Z" fill="#A5D9F2"/>
<path d="M43.1994 2.30181C43.1283 2.37286 43.297 2.36395 43.3058 2.35508C43.3769 2.28408 43.2082 2.29293 43.1994 2.30181ZM42.7201 2.46159C42.649 2.53264 42.8177 2.52372 42.8265 2.51485C42.8976 2.44385 42.7289 2.4527 42.7201 2.46159Z" fill="#D1F1FE"/>
<path d="M42.2406 2.62213C42.1695 2.69316 42.3382 2.68426 42.347 2.6754C42.4181 2.60439 42.2494 2.61324 42.2406 2.62213Z" fill="#D1F1FE"/>
<path d="M41.7616 2.78131C41.6905 2.85235 41.8592 2.84345 41.868 2.83458C41.9391 2.76358 41.7704 2.77241 41.7616 2.78131Z" fill="#D1F1FE"/>
<path d="M40.1634 3.58013C40.0923 3.65117 40.2611 3.64227 40.2698 3.6334C40.3409 3.5624 40.1722 3.57125 40.1634 3.58013Z" fill="#D1F1FE"/>
<path d="M39.8441 3.74029C39.773 3.81133 39.9417 3.80243 39.9505 3.79356C40.0216 3.72256 39.8529 3.73141 39.8441 3.74029Z" fill="#D1F1FE"/>
<path d="M39.3646 4.05963C39.2935 4.13068 39.4622 4.12176 39.471 4.1129C39.5421 4.04189 39.3734 4.05074 39.3646 4.05963Z" fill="#D1F1FE"/>
<path d="M36.3823 4.48535V4.80489C36.6436 4.71782 36.6148 4.74659 36.7019 4.48535H36.3823Z" fill="#B5DFF5"/>
<path d="M37.8735 5.55158C37.8648 5.56045 37.8558 5.72908 37.9269 5.65808C37.9357 5.64918 37.9446 5.48059 37.8735 5.55158Z" fill="#D1F1FE"/>
<path d="M35.7964 5.71076C35.7876 5.71959 35.7787 5.8883 35.8498 5.81726C35.8585 5.80836 35.8675 5.63977 35.7964 5.71076Z" fill="#C0ECF9"/>
<path d="M37.5537 6.03009C37.5449 6.03893 37.536 6.20763 37.6071 6.1366C37.6159 6.1277 37.6248 5.95911 37.5537 6.03009Z" fill="#D1F1FE"/>
<path d="M37.2345 6.66923C37.2257 6.67806 37.2168 6.84676 37.2879 6.77573C37.2967 6.76683 37.3056 6.59822 37.2345 6.66923Z" fill="#88CBEC"/>
<path d="M37.2344 6.98908C37.2256 6.99791 37.2166 7.16662 37.2877 7.09558C37.2965 7.08668 37.3055 6.91809 37.2344 6.98908Z" fill="#D1F1FE"/>
<path d="M35.3169 7.14826C35.3081 7.15713 35.2992 7.32578 35.3703 7.25476C35.3791 7.24586 35.388 7.07727 35.3169 7.14826Z" fill="#54B8E7"/>
<path d="M37.0747 7.46858C37.0659 7.47744 37.057 7.6461 37.1281 7.57508C37.1369 7.56618 37.1458 7.39757 37.0747 7.46858Z" fill="#D1F1FE"/>
<path d="M35.1572 7.7879C35.1485 7.79677 35.1395 7.96546 35.2106 7.89436C35.2194 7.88557 35.2283 7.71692 35.1572 7.7879Z" fill="#54B8E7"/>
<path d="M36.9151 7.94712C36.9063 7.95591 36.8973 8.12463 36.9684 8.05353C36.9772 8.04475 36.9861 7.87603 36.9151 7.94712Z" fill="#88CBEC"/>
<path d="M34.9976 8.26744C34.9888 8.27622 34.9798 8.44494 35.0509 8.37385C35.0597 8.36506 35.0687 8.19634 34.9976 8.26744Z" fill="#B5DFF5"/>
<path d="M36.9151 8.26744C36.9063 8.27622 36.8973 8.44494 36.9684 8.37385C36.9772 8.36506 36.9861 8.19634 36.9151 8.26744Z" fill="#D1F1FE"/>
<path d="M34.9976 8.58677C34.9888 8.59556 34.9798 8.76428 35.0509 8.69318C35.0597 8.68439 35.0687 8.51567 34.9976 8.58677Z" fill="#6FC1E9"/>
<path d="M36.7021 8.95898V9.91761H36.8619C36.8544 9.55765 36.8418 9.28684 36.7021 8.95898Z" fill="#54B8E7"/>
<path d="M34.7847 9.43848V11.0362H34.9444C34.9444 10.4907 34.9967 9.94383 34.7847 9.43848Z" fill="#B5DFF5"/>
<path d="M36.9151 10.5047C36.9063 10.5135 36.8973 10.6822 36.9684 10.6112C36.9772 10.6024 36.9861 10.4336 36.9151 10.5047Z" fill="#A5D9F2"/>
<path d="M36.9151 10.8231C36.9063 10.8319 36.8973 11.0006 36.9684 10.9295C36.9772 10.9207 36.9861 10.752 36.9151 10.8231Z" fill="#54B8E7"/>
<path d="M37.0747 11.1434C37.0659 11.1522 37.057 11.3209 37.1281 11.2498C37.1369 11.241 37.1458 11.0723 37.0747 11.1434Z" fill="#B5DFF5"/>
<path d="M34.9443 11.5156V11.9949H35.1041C35.064 11.763 35.0538 11.715 34.9443 11.5156Z" fill="#54B8E7"/>
<path d="M37.2344 11.6219C37.2256 11.6307 37.2166 11.7994 37.2877 11.7283C37.2965 11.7196 37.3055 11.5508 37.2344 11.6219Z" fill="#B5DFF5"/>
<path d="M37.2344 11.9422C37.2256 11.951 37.2166 12.1197 37.2877 12.0487C37.2965 12.0399 37.3055 11.8711 37.2344 11.9422Z" fill="#54B8E7"/>
<path d="M34.9443 11.9951V12.4744H35.1041C35.064 12.2424 35.0538 12.1945 34.9443 11.9951Z" fill="#C0ECF9"/>
<path d="M35.1572 12.7411C35.1485 12.7499 35.1395 12.9186 35.2106 12.8475C35.2194 12.8387 35.2283 12.67 35.1572 12.7411Z" fill="#A5D9F2"/>
<path d="M35.1572 13.0604C35.1485 13.0692 35.1395 13.2379 35.2106 13.1668C35.2194 13.158 35.2283 12.9893 35.1572 13.0604Z" fill="#D1F1FE"/>
<path d="M35.3169 13.7001C35.3081 13.7088 35.2992 13.8776 35.3703 13.8065C35.3791 13.7977 35.388 13.629 35.3169 13.7001Z" fill="#D1F1FE"/>
<path d="M35.6367 14.6581C35.6279 14.6669 35.619 14.8356 35.6901 14.7645C35.6989 14.7557 35.7078 14.587 35.6367 14.6581Z" fill="#D1F1FE"/>
<path d="M35.7964 15.1376C35.7876 15.1463 35.7787 15.3151 35.8498 15.244C35.8585 15.2352 35.8675 15.0665 35.7964 15.1376Z" fill="#D1F1FE"/>
<path d="M40.2165 15.1904C40.7719 17.9808 44.1183 20.5064 45.8958 22.5671C47.8223 24.8009 50.0435 26.7555 51.9981 28.9452C55.1817 32.5116 57.7056 36.9742 59.0638 41.5527C63.4641 56.3879 48.7878 69.0071 34.6245 66.7267C30.9052 66.1279 26.9186 64.642 23.7601 62.5875C21.1139 60.8663 18.6368 58.3628 15.7715 57.0506C21.75 73.4791 42.4105 79.677 57.1523 71.4521C70.4674 64.0232 76.3149 47.464 70.2984 33.4044C68.5273 29.2657 66.0638 25.6636 62.5846 22.7692C58.6957 19.534 53.8555 16.9749 48.8442 16.0875C45.9897 15.582 43.0189 15.9779 40.2165 15.1904Z" fill="#AFF1F5"/>
<path d="M35.9561 15.4569C35.9473 15.4657 35.9383 15.6344 36.0094 15.5633C36.0182 15.5545 36.0272 15.3858 35.9561 15.4569Z" fill="#D1F1FE"/>
<path d="M36.1162 15.7762C36.1074 15.785 36.0985 15.9537 36.1696 15.8826C36.1784 15.8738 36.1873 15.7051 36.1162 15.7762Z" fill="#D1F1FE"/>
<path d="M39.6309 15.9364C39.6221 15.9452 39.6131 16.1139 39.6842 16.0428C39.693 16.034 39.702 15.8653 39.6309 15.9364Z" fill="#B5DFF5"/>
<path d="M36.7554 17.0545C36.7466 17.0633 36.7376 17.2321 36.8087 17.161C36.8175 17.1522 36.8265 16.9834 36.7554 17.0545Z" fill="#D1F1FE"/>
<path d="M40.7495 17.3739C40.7407 17.3827 40.7318 17.5514 40.8029 17.4803C40.8117 17.4715 40.8206 17.3028 40.7495 17.3739Z" fill="#B5DFF5"/>
<path d="M37.0747 17.534C37.0659 17.5428 37.057 17.7115 37.1281 17.6404C37.1369 17.6317 37.1458 17.4629 37.0747 17.534Z" fill="#D1F1FE"/>
<path d="M41.1753 18.0664C41.2624 18.3276 41.2336 18.2989 41.4948 18.3859V18.0664H41.1753Z" fill="#A5D9F2"/>
<path d="M37.5537 18.3329C37.5449 18.3417 37.536 18.5104 37.6071 18.4393C37.6159 18.4305 37.6248 18.2618 37.5537 18.3329Z" fill="#D1F1FE"/>
<path d="M37.8735 18.8124C37.8648 18.8211 37.8558 18.9899 37.9269 18.9188C37.9357 18.91 37.9446 18.7413 37.8735 18.8124Z" fill="#D1F1FE"/>
<path d="M38.1929 19.2909C38.1841 19.2997 38.1751 19.4684 38.2462 19.3973C38.255 19.3885 38.264 19.2198 38.1929 19.2909Z" fill="#D1F1FE"/>
<path d="M38.6724 19.9295C38.6636 19.9383 38.6546 20.1071 38.7257 20.036C38.7345 20.0272 38.7435 19.8584 38.6724 19.9295Z" fill="#D1F1FE"/>
<path d="M43.4121 20.623C43.6075 20.814 43.639 20.8333 43.8914 20.9426C43.696 20.7517 43.6645 20.7323 43.4121 20.623ZM44.211 20.623C44.3874 20.9996 44.5235 21.1624 44.8501 21.4219C44.6737 21.0453 44.5375 20.8825 44.211 20.623Z" fill="#D1F1FE"/>
<path d="M39.4712 21.0487C39.4624 21.0575 39.4535 21.2262 39.5246 21.1551C39.5334 21.1463 39.5423 20.9776 39.4712 21.0487Z" fill="#D1F1FE"/>
<path d="M39.9507 21.6874C39.9419 21.6961 39.933 21.8649 40.0041 21.7938C40.0128 21.785 40.0218 21.6163 39.9507 21.6874ZM44.5309 21.7406C44.7071 21.9733 44.7774 22.0436 45.0102 22.2199C44.8665 21.8805 44.8702 21.8842 44.5309 21.7406ZM40.2702 22.1667C40.2615 22.1755 40.2525 22.3442 40.3236 22.2731C40.3324 22.2643 40.3413 22.0956 40.2702 22.1667Z" fill="#D1F1FE"/>
<path d="M45.649 22.2197C45.6602 22.5316 45.7056 22.5297 45.4893 22.699C45.6655 22.9318 45.7358 23.0021 45.9686 23.1784C46.0147 22.705 45.9793 22.5591 45.649 22.2197Z" fill="#D1F1FE"/>
<path d="M40.9092 22.9657C40.9004 22.9745 40.8915 23.1432 40.9626 23.0721C40.9713 23.0633 40.9803 22.8946 40.9092 22.9657Z" fill="#D1F1FE"/>
<path d="M41.2285 23.4452C41.2197 23.454 41.2108 23.6227 41.2819 23.5516C41.2907 23.5428 41.2996 23.3741 41.2285 23.4452Z" fill="#D1F1FE"/>
<path d="M41.8677 24.244C41.8589 24.2528 41.85 24.4215 41.921 24.3504C41.9298 24.3416 41.9388 24.1729 41.8677 24.244Z" fill="#D1F1FE"/>
<path d="M47.0872 24.457C47.2997 24.7371 47.4462 24.8836 47.7263 25.0961C47.5419 24.7368 47.4465 24.6414 47.0872 24.457ZM42.1343 24.6168C42.2436 24.8692 42.2629 24.9007 42.4538 25.0961C42.3445 24.8437 42.3252 24.8122 42.1343 24.6168ZM42.8266 25.5222C42.8178 25.531 42.8088 25.6997 42.8799 25.6286C42.8887 25.6198 42.8977 25.4511 42.8266 25.5222Z" fill="#D1F1FE"/>
<path d="M43.3057 26.162C43.2969 26.1708 43.2879 26.3395 43.359 26.2684C43.3678 26.2596 43.3768 26.0909 43.3057 26.162Z" fill="#D1F1FE"/>
<path d="M49.0044 26.6943C49.0915 26.9556 49.0627 26.9268 49.3239 27.0139V26.6943H49.0044Z" fill="#A5D9F2"/>
<path d="M43.9448 26.9608C43.936 26.9696 43.9271 27.1383 43.9982 27.0672C44.007 27.0584 44.0159 26.8897 43.9448 26.9608Z" fill="#D1F1FE"/>
<path d="M44.7437 27.9188C44.7349 27.9276 44.7259 28.0963 44.797 28.0252C44.8058 28.0164 44.8148 27.8477 44.7437 27.9188Z" fill="#D1F1FE"/>
<path d="M45.1699 28.4512C45.2792 28.7036 45.2985 28.7351 45.4895 28.9305C45.3802 28.678 45.3608 28.6466 45.1699 28.4512ZM50.4424 28.4512C50.5295 28.7124 50.5007 28.6836 50.7619 28.7707V28.4512H50.4424ZM51.5608 28.4512C51.7685 28.8926 51.9687 29.1165 52.3596 29.4098C52.1521 28.9684 51.9517 28.7445 51.5608 28.4512Z" fill="#D1F1FE"/>
<path d="M51.1343 29.1971C51.1255 29.2059 51.1166 29.3746 51.1876 29.3035C51.1964 29.2947 51.2054 29.126 51.1343 29.1971Z" fill="#B5DFF5"/>
<path d="M46.3413 29.996C46.3325 30.0047 46.3236 30.1735 46.3947 30.1024C46.4035 30.0936 46.4124 29.9249 46.3413 29.996Z" fill="#D1F1FE"/>
<path d="M52.2525 30.6356C52.2437 30.6444 52.2347 30.8131 52.3058 30.742C52.3146 30.7332 52.3236 30.5645 52.2525 30.6356Z" fill="#B5DFF5"/>
<path d="M47.1401 31.1151C47.1314 31.1239 47.1224 31.2926 47.1935 31.2215C47.2023 31.2127 47.2112 31.044 47.1401 31.1151Z" fill="#D1F1FE"/>
<path d="M47.6196 31.7538C47.6109 31.7626 47.6019 31.9313 47.673 31.8602C47.6818 31.8514 47.6907 31.6827 47.6196 31.7538Z" fill="#D1F1FE"/>
<path d="M48.2588 32.7118C48.25 32.7206 48.2411 32.8893 48.3122 32.8182C48.3209 32.8094 48.3299 32.6407 48.2588 32.7118Z" fill="#D1F1FE"/>
<path d="M48.5781 33.1913C48.5693 33.2001 48.5604 33.3688 48.6315 33.2977C48.6403 33.2889 48.6492 33.1202 48.5781 33.1913ZM48.8977 33.6706C48.8889 33.6794 48.8799 33.8481 48.951 33.777C48.9598 33.7682 48.9688 33.5995 48.8977 33.6706Z" fill="#D1F1FE"/>
<path d="M49.2173 34.1502C49.2085 34.159 49.1996 34.3278 49.2707 34.2567C49.2794 34.2479 49.2884 34.0792 49.2173 34.1502Z" fill="#D1F1FE"/>
<path d="M54.9688 34.4696C54.96 34.4784 54.951 34.6471 55.0221 34.576C55.0309 34.5672 55.0399 34.3985 54.9688 34.4696Z" fill="#B5DFF5"/>
<path d="M49.5366 34.6288C49.5278 34.6376 49.5189 34.8063 49.59 34.7352C49.5988 34.7264 49.6077 34.5577 49.5366 34.6288ZM49.6964 34.9483C49.6876 34.9571 49.6787 35.1258 49.7498 35.0547C49.7586 35.0459 49.7675 34.8772 49.6964 34.9483Z" fill="#D1F1FE"/>
<path d="M55.2886 34.9491C55.2798 34.9579 55.2708 35.1266 55.3419 35.0555C55.3507 35.0467 55.3597 34.878 55.2886 34.9491Z" fill="#C0ECF9"/>
<path d="M50.3359 35.9071C50.3272 35.9159 50.3182 36.0846 50.3893 36.0135C50.3981 36.0047 50.407 35.836 50.3359 35.9071Z" fill="#D1F1FE"/>
<path d="M55.9273 36.0672C55.9185 36.076 55.9095 36.2448 55.9806 36.1737C55.9894 36.1649 55.9984 35.9961 55.9273 36.0672Z" fill="#B5DFF5"/>
<path d="M50.9751 37.0262C50.9663 37.035 50.9574 37.2037 51.0285 37.1326C51.0373 37.1238 51.0462 36.9551 50.9751 37.0262Z" fill="#D1F1FE"/>
<path d="M51.4541 37.8251C51.4453 37.8338 51.4364 38.0026 51.5075 37.9315C51.5163 37.9227 51.5252 37.754 51.4541 37.8251Z" fill="#D1F1FE"/>
<path d="M56.8862 37.9852C56.8775 37.994 56.8685 38.1627 56.9396 38.0916C56.9484 38.0828 56.9573 37.9141 56.8862 37.9852Z" fill="#B5DFF5"/>
<path d="M57.0459 38.3036C57.0371 38.3124 57.0282 38.4811 57.0993 38.41C57.1081 38.4012 57.117 38.2325 57.0459 38.3036Z" fill="#B5DFF5"/>
<path d="M51.7734 38.4647C51.7647 38.4735 51.7557 38.6422 51.8268 38.5711C51.8356 38.5623 51.8445 38.3936 51.7734 38.4647ZM51.9332 38.7842C51.9244 38.793 51.9155 38.9618 51.9866 38.8907C51.9954 38.8819 52.0043 38.7131 51.9332 38.7842Z" fill="#D1F1FE"/>
<path d="M52.0933 39.1034C52.0845 39.1122 52.0755 39.2809 52.1466 39.2098C52.1554 39.201 52.1644 39.0323 52.0933 39.1034Z" fill="#D1F1FE"/>
<path d="M57.3657 39.1034C57.3569 39.1122 57.348 39.2809 57.4191 39.2098C57.4279 39.201 57.4368 39.0323 57.3657 39.1034Z" fill="#A5D9F2"/>
<path d="M52.2525 39.4227C52.2437 39.4315 52.2347 39.6002 52.3058 39.5291C52.3146 39.5203 52.3236 39.3516 52.2525 39.4227ZM52.4122 39.7423C52.4034 39.751 52.3945 39.9198 52.4656 39.8487C52.4744 39.8399 52.4833 39.6712 52.4122 39.7423Z" fill="#D1F1FE"/>
<path d="M57.6851 40.0614C57.6763 40.0702 57.6673 40.2389 57.7384 40.1678C57.7472 40.159 57.7562 39.9903 57.6851 40.0614Z" fill="#B5DFF5"/>
<path d="M52.7319 40.5409C52.7232 40.5497 52.7142 40.7184 52.7853 40.6473C52.7941 40.6385 52.803 40.4698 52.7319 40.5409Z" fill="#D1F1FE"/>
<path d="M57.792 40.4336V40.9129H57.9518C57.9117 40.6809 57.9014 40.633 57.792 40.4336Z" fill="#C0ECF9"/>
<path d="M52.8921 41.0204C52.8833 41.0292 52.8744 41.1979 52.9455 41.1268C52.9542 41.118 52.9632 40.9493 52.8921 41.0204ZM53.0519 41.3399C53.0431 41.3487 53.0341 41.5174 53.1052 41.4463C53.114 41.4375 53.123 41.2688 53.0519 41.3399Z" fill="#D1F1FE"/>
<path d="M58.0044 41.3397C57.9956 41.3485 57.9867 41.5172 58.0578 41.4461C58.0666 41.4373 58.0755 41.2686 58.0044 41.3397Z" fill="#54B8E7"/>
<path d="M53.2114 41.8192C53.2026 41.828 53.1937 41.9967 53.2648 41.9256C53.2736 41.9168 53.2825 41.7481 53.2114 41.8192Z" fill="#D1F1FE"/>
<path d="M58.1646 41.9784C58.1558 41.9872 58.1468 42.1559 58.2179 42.0848C58.2267 42.076 58.2357 41.9073 58.1646 41.9784Z" fill="#54B8E7"/>
<path d="M53.3711 42.2987C53.3623 42.3075 53.3534 42.4762 53.4245 42.4051C53.4333 42.3963 53.4422 42.2276 53.3711 42.2987Z" fill="#D1F1FE"/>
<path d="M58.3242 42.4579C58.3154 42.4667 58.3065 42.6354 58.3776 42.5643C58.3864 42.5555 58.3953 42.3868 58.3242 42.4579Z" fill="#B5DFF5"/>
<path d="M58.271 42.6709V43.1502H58.4308C58.3907 42.9182 58.3804 42.8703 58.271 42.6709Z" fill="#6FC1E9"/>
<path d="M53.5313 43.0975C53.5225 43.1063 53.5135 43.275 53.5846 43.2039C53.5934 43.1951 53.6024 43.0264 53.5313 43.0975Z" fill="#D1F1FE"/>
<path d="M58.4312 43.3096V43.7889H58.5909C58.5508 43.5569 58.5406 43.509 58.4312 43.3096Z" fill="#C0ECF9"/>
<path d="M53.6377 43.4697V43.949H53.7975C53.7574 43.7171 53.7471 43.6691 53.6377 43.4697Z" fill="#B5DFF5"/>
<path d="M58.4839 43.8963C58.4751 43.9051 58.4662 44.0739 58.5373 44.0028C58.546 43.994 58.555 43.8252 58.4839 43.8963Z" fill="#6FC1E9"/>
<path d="M53.8506 44.2157C53.8418 44.2245 53.8329 44.3932 53.904 44.3221C53.9127 44.3133 53.9217 44.1446 53.8506 44.2157Z" fill="#88CBEC"/>
<path d="M53.8506 44.535C53.8418 44.5438 53.8329 44.7125 53.904 44.6414C53.9127 44.6326 53.9217 44.4639 53.8506 44.535Z" fill="#D1F1FE"/>
<path d="M58.5903 44.5879V45.0672H58.7501C58.71 44.8352 58.6998 44.7873 58.5903 44.5879Z" fill="#C0ECF9"/>
<path d="M54.0103 45.0145C54.0015 45.0233 53.9925 45.192 54.0636 45.1209C54.0724 45.1121 54.0814 44.9434 54.0103 45.0145Z" fill="#54B8E7"/>
<path d="M58.5904 45.0674V45.5467H58.7502C58.7101 45.3147 58.6999 45.2668 58.5904 45.0674ZM54.0103 45.3337C54.0015 45.3425 53.9925 45.5112 54.0636 45.4401C54.0724 45.4313 54.0814 45.2626 54.0103 45.3337Z" fill="#88CBEC"/>
<path d="M53.9575 45.5469V46.0262H54.1173C54.0772 45.7942 54.067 45.7463 53.9575 45.5469Z" fill="#C0ECF9"/>
<path d="M58.5903 45.5469V46.3457H58.7501C58.736 46.0319 58.7148 45.8295 58.5903 45.5469Z" fill="#54B8E7"/>
<path d="M53.9575 47.9434V48.4227H54.1173C54.0772 48.1907 54.067 48.1428 53.9575 47.9434Z" fill="#C0ECF9"/>
<path d="M54.0103 48.5292C54.0015 48.5379 53.9925 48.7067 54.0636 48.6356C54.0724 48.6268 54.0814 48.4581 54.0103 48.5292Z" fill="#88CBEC"/>
<path d="M58.5903 48.4229V49.3815H58.7501C58.7426 49.0215 58.73 48.7507 58.5903 48.4229Z" fill="#54B8E7"/>
<path d="M53.8506 49.328C53.8418 49.3368 53.8329 49.5055 53.904 49.4344C53.9127 49.4256 53.9217 49.2569 53.8506 49.328Z" fill="#B5DFF5"/>
<path d="M58.6436 49.4881C58.6348 49.4969 58.6258 49.6656 58.6969 49.5946C58.7057 49.5858 58.7147 49.417 58.6436 49.4881Z" fill="#88CBEC"/>
<path d="M53.8506 49.6473C53.8418 49.6561 53.8329 49.8248 53.904 49.7537C53.9127 49.7449 53.9217 49.5762 53.8506 49.6473Z" fill="#54B8E7"/>
<path d="M58.5906 49.7012V50.1805H58.7504C58.7103 49.9485 58.7001 49.9006 58.5906 49.7012ZM53.6377 49.8609V50.3403H53.7975C53.7574 50.1083 53.7471 50.0603 53.6377 49.8609Z" fill="#C0ECF9"/>
<path d="M53.5313 50.6063C53.5225 50.6151 53.5135 50.7838 53.5846 50.7127C53.5934 50.7039 53.6024 50.5352 53.5313 50.6063Z" fill="#B5DFF5"/>
<path d="M58.4839 50.7665C58.4751 50.7752 58.4662 50.944 58.5373 50.8729C58.546 50.8641 58.555 50.6954 58.4839 50.7665Z" fill="#88CBEC"/>
<path d="M58.4839 51.0858C58.4751 51.0946 58.4662 51.2633 58.5373 51.1922C58.546 51.1834 58.555 51.0147 58.4839 51.0858Z" fill="#D1F1FE"/>
<path d="M53.3711 51.246C53.3623 51.2547 53.3534 51.4235 53.4245 51.3524C53.4333 51.3436 53.4422 51.1749 53.3711 51.246Z" fill="#B5DFF5"/>
<path d="M58.271 51.2988V51.7781H58.4308C58.3907 51.5462 58.3804 51.4982 58.271 51.2988Z" fill="#54B8E7"/>
<path d="M58.271 51.7783V52.2576H58.4308C58.3907 52.0256 58.3804 51.9777 58.271 51.7783Z" fill="#B5DFF5"/>
<path d="M53.0523 52.0438C53.0435 52.0526 53.0345 52.2213 53.1056 52.1502C53.1144 52.1414 53.1234 51.9727 53.0523 52.0438Z" fill="#C0ECF9"/>
<path d="M52.5728 53.1629C52.564 53.1717 52.555 53.3405 52.6261 53.2694C52.6349 53.2606 52.6439 53.0918 52.5728 53.1629Z" fill="#B5DFF5"/>
<path d="M57.8452 53.4823C57.8364 53.4911 57.8275 53.6598 57.8986 53.5887C57.9074 53.5799 57.9163 53.4112 57.8452 53.4823Z" fill="#D1F1FE"/>
<path d="M12.0967 53.5361C12.2533 53.821 12.2418 53.7908 12.576 53.8557V53.6959L12.0967 53.5361Z" fill="#A5D9F2"/>
<path d="M57.5254 54.2811C57.5166 54.2899 57.5077 54.4586 57.5788 54.3875C57.5876 54.3787 57.5965 54.21 57.5254 54.2811Z" fill="#D1F1FE"/>
<path d="M57.3657 54.6004C57.3569 54.6092 57.348 54.778 57.4191 54.7069C57.4279 54.6981 57.4368 54.5293 57.3657 54.6004Z" fill="#D1F1FE"/>
<path d="M14.1738 54.6543C14.2609 54.9155 14.2321 54.8868 14.4934 54.9738V54.6543H14.1738Z" fill="#75DBF9"/>
<path d="M57.2061 54.9208C57.1973 54.9295 57.1883 55.0983 57.2594 55.0272C57.2682 55.0184 57.2772 54.8497 57.2061 54.9208Z" fill="#D1F1FE"/>
<path d="M14.6533 54.9736V55.1334C15.1873 55.3555 15.6944 55.6121 16.251 55.7725V55.6127C15.7299 55.31 15.2483 55.0797 14.6533 54.9736Z" fill="#75DBF9"/>
<path d="M57.0459 55.2391C57.0371 55.2479 57.0282 55.4166 57.0993 55.3455C57.1081 55.3367 57.117 55.168 57.0459 55.2391Z" fill="#D1F1FE"/>
<path d="M51.0815 55.6123V55.9318C51.3428 55.8448 51.314 55.8735 51.4011 55.6123H51.0815Z" fill="#B5DFF5"/>
<path d="M56.7266 55.7186C56.7178 55.7274 56.7088 55.8961 56.7799 55.825C56.7887 55.8162 56.7977 55.6475 56.7266 55.7186Z" fill="#D1F1FE"/>
<path d="M16.3578 55.8252C16.2867 55.8963 16.4554 55.8874 16.4642 55.8786C16.5353 55.8075 16.3666 55.8164 16.3578 55.8252ZM16.6773 55.985C16.6062 56.0561 16.7749 56.0471 16.7837 56.0383C16.8548 55.9672 16.6861 55.9762 16.6773 55.985Z" fill="#85DDF9"/>
<path d="M56.5664 56.0389C56.5576 56.0477 56.5487 56.2164 56.6198 56.1453C56.6286 56.1365 56.6375 55.9678 56.5664 56.0389Z" fill="#D1F1FE"/>
<path d="M56.4067 56.3583C56.398 56.367 56.389 56.5358 56.4601 56.4647C56.4689 56.4559 56.4778 56.2872 56.4067 56.3583Z" fill="#D1F1FE"/>
<path d="M15.3993 56.4639C15.3282 56.535 15.4969 56.526 15.5057 56.5172C15.5768 56.4461 15.4081 56.4551 15.3993 56.4639Z" fill="#A5D9F2"/>
<path d="M56.0874 56.8377C56.0786 56.8465 56.0697 57.0153 56.1408 56.9442C56.1496 56.9354 56.1585 56.7667 56.0874 56.8377Z" fill="#D1F1FE"/>
<path d="M55.9273 57.1571C55.9185 57.1659 55.9095 57.3346 55.9806 57.2635C55.9894 57.2547 55.9984 57.086 55.9273 57.1571Z" fill="#D1F1FE"/>
<path d="M55.6079 57.6366C55.5991 57.6454 55.5902 57.8141 55.6613 57.743C55.6701 57.7342 55.679 57.5655 55.6079 57.6366Z" fill="#D1F1FE"/>
<path d="M55.4483 57.9559C55.4395 57.9647 55.4305 58.1334 55.5016 58.0623C55.5104 58.0535 55.5194 57.8848 55.4483 57.9559Z" fill="#D1F1FE"/>
<path d="M21.1507 58.2217C21.0796 58.2928 21.2484 58.2838 21.2571 58.2751C21.3282 58.204 21.1595 58.2129 21.1507 58.2217Z" fill="#D1F1FE"/>
<path d="M21.4701 58.3818C21.399 58.4529 21.5677 58.444 21.5765 58.4352C21.6476 58.3641 21.4789 58.3731 21.4701 58.3818Z" fill="#D1F1FE"/>
<path d="M21.7899 58.542C21.7188 58.6131 21.8875 58.6042 21.8963 58.5954C21.9674 58.5243 21.7987 58.5332 21.7899 58.542ZM54.969 58.5954C54.9602 58.6042 54.9513 58.7729 55.0224 58.7018C55.0312 58.693 55.0401 58.5243 54.969 58.5954Z" fill="#D1F1FE"/>
<path d="M22.1092 58.7012C22.0381 58.7723 22.2069 58.7633 22.2156 58.7545C22.2867 58.6834 22.118 58.6924 22.1092 58.7012Z" fill="#D1F1FE"/>
<path d="M22.4291 58.8613C22.358 58.9324 22.5267 58.9235 22.5355 58.9147C22.6066 58.8436 22.4378 58.8526 22.4291 58.8613Z" fill="#D1F1FE"/>
<path d="M55.3951 58.9678C54.5737 59.7892 53.6685 60.5732 52.9985 61.5241C53.8079 61.1466 55.4154 59.9253 55.3951 58.9678Z" fill="#C0ECF9"/>
<path d="M19.3929 59.1811C19.3218 59.2522 19.4905 59.2433 19.4993 59.2345C19.5704 59.1634 19.4017 59.1723 19.3929 59.1811ZM22.9611 59.1279V59.2877H23.4404C23.241 59.1783 23.1931 59.168 22.9611 59.1279Z" fill="#B5DFF5"/>
<path d="M24.6659 59.8203C24.5948 59.8914 24.7635 59.8825 24.7723 59.8737C24.8434 59.8026 24.6747 59.8115 24.6659 59.8203Z" fill="#D1F1FE"/>
<path d="M46.8739 59.8203C46.8028 59.8914 46.9715 59.8825 46.9803 59.8737C47.0514 59.8026 46.8827 59.8115 46.8739 59.8203Z" fill="#B5DFF5"/>
<path d="M24.9857 59.9795C24.9146 60.0506 25.0833 60.0417 25.0921 60.0329C25.1632 59.9618 24.9945 59.9707 24.9857 59.9795Z" fill="#D1F1FE"/>
<path d="M25.305 60.1391C25.2339 60.2102 25.4027 60.2013 25.4114 60.1925C25.4825 60.1214 25.3138 60.1304 25.305 60.1391Z" fill="#A5D9F2"/>
<path d="M53.6378 60.0859C53.4803 60.3222 53.478 60.2781 53.478 60.5653C53.684 60.3347 53.7019 60.3681 53.6378 60.0859Z" fill="#D1F1FE"/>
<path d="M21.1507 60.2998C21.0796 60.3709 21.2484 60.362 21.2571 60.3532C21.3282 60.2821 21.1595 60.291 21.1507 60.2998Z" fill="#A5D9F2"/>
<path d="M25.9442 60.2998C25.8731 60.3709 26.0418 60.362 26.0506 60.3532C26.1217 60.2821 25.953 60.291 25.9442 60.2998Z" fill="#D1F1FE"/>
<path d="M46.0755 60.2998C46.0044 60.3709 46.1732 60.362 46.182 60.3532C46.2531 60.2821 46.0843 60.291 46.0755 60.2998Z" fill="#B5DFF5"/>
<path d="M21.6302 60.6182C21.5591 60.6893 21.7278 60.6803 21.7366 60.6715C21.8077 60.6004 21.639 60.6094 21.6302 60.6182Z" fill="#B5DFF5"/>
<path d="M26.7425 60.6182C26.6714 60.6893 26.8402 60.6803 26.8489 60.6715C26.92 60.6004 26.7513 60.6094 26.7425 60.6182Z" fill="#D1F1FE"/>
<path d="M44.9569 60.9385C44.8858 61.0096 45.0545 61.0006 45.0633 60.9918C45.1344 60.9208 44.9657 60.9297 44.9569 60.9385Z" fill="#B5DFF5"/>
<path d="M27.9146 61.0449V61.2047H28.3939C28.1945 61.0952 28.1465 61.085 27.9146 61.0449ZM44.6374 61.0981C44.5663 61.1692 44.735 61.1603 44.7438 61.1515C44.8149 61.0804 44.6462 61.0893 44.6374 61.0981Z" fill="#B5DFF5"/>
<path d="M22.5887 61.2578C22.5176 61.3289 22.6863 61.32 22.6951 61.3112C22.7662 61.2401 22.5975 61.249 22.5887 61.2578Z" fill="#C0ECF9"/>
<path d="M28.6605 61.2578C28.5894 61.3289 28.7581 61.32 28.7669 61.3112C28.838 61.2401 28.6693 61.249 28.6605 61.2578Z" fill="#D1F1FE"/>
<path d="M29.1395 61.417C29.0684 61.4881 29.2371 61.4792 29.2459 61.4704C29.317 61.3993 29.1483 61.4082 29.1395 61.417Z" fill="#D1F1FE"/>
<path d="M29.619 61.5772C29.5479 61.6483 29.7166 61.6393 29.7254 61.6305C29.7965 61.5594 29.6278 61.5684 29.619 61.5772Z" fill="#D1F1FE"/>
<path d="M52.04 61.844C52.2925 61.7347 52.324 61.7153 52.5194 61.5244C52.2669 61.6337 52.2354 61.653 52.04 61.844Z" fill="#D1F1FE"/>
<path d="M29.9917 61.6836V61.8434H30.471C30.2716 61.7339 30.2237 61.7237 29.9917 61.6836Z" fill="#B5DFF5"/>
<path d="M30.7372 61.8965C30.6661 61.9676 30.8348 61.9586 30.8436 61.9499C30.9147 61.8788 30.746 61.8877 30.7372 61.8965Z" fill="#D1F1FE"/>
<path d="M31.1099 62.0039V62.1637H31.5892C31.3898 62.0542 31.3419 62.044 31.1099 62.0039Z" fill="#88CBEC"/>
<path d="M42.7201 62.0567C42.649 62.1278 42.8177 62.1188 42.8265 62.11C42.8976 62.0389 42.7289 62.0479 42.7201 62.0567Z" fill="#6FC1E9"/>
<path d="M32.015 62.2168C31.9439 62.2879 32.1126 62.279 32.1214 62.2702C32.1925 62.1991 32.0238 62.208 32.015 62.2168Z" fill="#88CBEC"/>
<path d="M32.3353 62.2168C32.2642 62.2879 32.4329 62.279 32.4417 62.2702C32.5128 62.1991 32.3441 62.208 32.3353 62.2168Z" fill="#D1F1FE"/>
<path d="M24.3465 62.3761C24.2754 62.4472 24.4442 62.4382 24.4529 62.4294C24.524 62.3583 24.3553 62.3673 24.3465 62.3761Z" fill="#A5D9F2"/>
<path d="M32.8143 62.376C32.7432 62.4471 32.9119 62.4381 32.9207 62.4293C32.9918 62.3583 32.8231 62.3672 32.8143 62.376Z" fill="#88CBEC"/>
<path d="M33.1336 62.376C33.0625 62.4471 33.2313 62.4381 33.2401 62.4293C33.3112 62.3583 33.1424 62.3672 33.1336 62.376Z" fill="#D1F1FE"/>
<path d="M41.6014 62.376C41.5303 62.4471 41.699 62.4381 41.7078 62.4293C41.7789 62.3583 41.6102 62.3672 41.6014 62.376Z" fill="#B5DFF5"/>
<path d="M33.6131 62.5361C33.542 62.6072 33.7108 62.5983 33.7196 62.5895C33.7906 62.5184 33.6219 62.5274 33.6131 62.5361Z" fill="#6FC1E9"/>
<path d="M33.8262 62.4824V62.6422H34.3055C34.1061 62.5327 34.0582 62.5225 33.8262 62.4824Z" fill="#C0ECF9"/>
<path d="M41.2821 62.5361C41.211 62.6072 41.3797 62.5983 41.3885 62.5895C41.4596 62.5184 41.2909 62.5274 41.2821 62.5361Z" fill="#54B8E7"/>
<path d="M51.1878 62.5361C51.1167 62.6072 51.2855 62.5983 51.2943 62.5895C51.3654 62.5184 51.1966 62.5274 51.1878 62.5361Z" fill="#D1F1FE"/>
<path d="M34.412 62.6963C34.3409 62.7674 34.5096 62.7584 34.5184 62.7497C34.5895 62.6786 34.4208 62.6875 34.412 62.6963Z" fill="#54B8E7"/>
<path d="M34.7313 62.6963C34.6602 62.7674 34.8289 62.7584 34.8377 62.7497C34.9088 62.6786 34.7401 62.6875 34.7313 62.6963Z" fill="#A5D9F2"/>
<path d="M35.0511 62.6963C34.98 62.7674 35.1488 62.7584 35.1575 62.7497C35.2286 62.6786 35.0599 62.6875 35.0511 62.6963Z" fill="#D1F1FE"/>
<path d="M40.4833 62.6963C40.4122 62.7674 40.5809 62.7584 40.5897 62.7497C40.6608 62.6786 40.492 62.6875 40.4833 62.6963Z" fill="#A5D9F2"/>
<path d="M35.7437 62.8027V62.9625H36.223C36.0236 62.8531 35.9756 62.8428 35.7437 62.8027Z" fill="#88CBEC"/>
<path d="M36.2227 62.8027V62.9625H36.702C36.5026 62.8531 36.4546 62.8428 36.2227 62.8027ZM39.2583 62.8027V62.9625H39.7376C39.5382 62.8531 39.4903 62.8428 39.2583 62.8027Z" fill="#C0ECF9"/>
<path d="M39.8441 62.8555C39.773 62.9266 39.9417 62.9176 39.9505 62.9088C40.0216 62.8377 39.8529 62.8467 39.8441 62.8555Z" fill="#6FC1E9"/>
<path d="M37.1812 62.9615V63.1213H39.0984C38.5076 62.8733 37.8175 62.9615 37.1812 62.9615Z" fill="#54B8E7"/>
<path d="M50.0697 63.335C49.9986 63.4061 50.1673 63.3971 50.1761 63.3883C50.2472 63.3172 50.0785 63.3262 50.0697 63.335Z" fill="#D1F1FE"/>
<path d="M26.1039 63.4951C26.0328 63.5662 26.2015 63.5573 26.2103 63.5485C26.2814 63.4774 26.1127 63.4863 26.1039 63.4951Z" fill="#C0ECF9"/>
<path d="M26.4232 63.6543C26.3521 63.7254 26.5208 63.7165 26.5296 63.7077C26.6007 63.6366 26.432 63.6455 26.4232 63.6543Z" fill="#B5DFF5"/>
<path d="M49.1112 63.9746C49.0401 64.0457 49.2088 64.0368 49.2176 64.028C49.2887 63.9569 49.12 63.9658 49.1112 63.9746Z" fill="#D1F1FE"/>
<path d="M48.7914 64.1338C48.7203 64.2049 48.889 64.1959 48.8978 64.1872C48.9689 64.1161 48.8002 64.125 48.7914 64.1338Z" fill="#D1F1FE"/>
<path d="M48.472 64.293C48.4009 64.3641 48.5697 64.3551 48.5784 64.3463C48.6495 64.2752 48.4808 64.2842 48.472 64.293Z" fill="#D1F1FE"/>
<path d="M28.181 64.4531C28.1099 64.5242 28.2786 64.5153 28.2874 64.5065C28.3585 64.4354 28.1898 64.4443 28.181 64.4531Z" fill="#B5DFF5"/>
<path d="M48.1522 64.4531C48.0811 64.5242 48.2498 64.5153 48.2586 64.5065C48.3297 64.4354 48.161 64.4443 48.1522 64.4531Z" fill="#D1F1FE"/>
<path d="M28.9798 64.7725C28.9087 64.8436 29.0775 64.8346 29.0862 64.8258C29.1573 64.7547 28.9886 64.7637 28.9798 64.7725Z" fill="#B5DFF5"/>
<path d="M47.1937 64.9326C47.1226 65.0037 47.2913 64.9948 47.3001 64.986C47.3712 64.9149 47.2025 64.9238 47.1937 64.9326Z" fill="#D1F1FE"/>
<path d="M29.832 65.0391V65.1988H30.3113C30.112 65.0894 30.064 65.0792 29.832 65.0391Z" fill="#C0ECF9"/>
<path d="M46.7142 65.0918C46.6431 65.1629 46.8118 65.154 46.8206 65.1452C46.8917 65.0741 46.723 65.083 46.7142 65.0918Z" fill="#D1F1FE"/>
<path d="M46.3949 65.252C46.3238 65.3231 46.4925 65.3141 46.5013 65.3053C46.5724 65.2342 46.4037 65.2432 46.3949 65.252Z" fill="#D1F1FE"/>
<path d="M30.9502 65.3584V65.5182H31.4295C31.2301 65.4087 31.1822 65.3985 30.9502 65.3584Z" fill="#C0ECF9"/>
<path d="M45.9154 65.4121C45.8443 65.4832 46.013 65.4743 46.0218 65.4655C46.0929 65.3944 45.9242 65.4033 45.9154 65.4121Z" fill="#D1F1FE"/>
<path d="M31.6957 65.5713C31.6246 65.6424 31.7933 65.6334 31.8021 65.6247C31.8732 65.5536 31.7044 65.5625 31.6957 65.5713Z" fill="#B5DFF5"/>
<path d="M32.015 65.5713C31.9439 65.6424 32.1126 65.6334 32.1214 65.6247C32.1925 65.5536 32.0238 65.5625 32.015 65.5713Z" fill="#54B8E7"/>
<path d="M45.4364 65.5713C45.3653 65.6424 45.534 65.6334 45.5428 65.6247C45.6139 65.5536 45.4452 65.5625 45.4364 65.5713Z" fill="#D1F1FE"/>
<path d="M32.3353 65.7315C32.2642 65.8026 32.4329 65.7936 32.4417 65.7848C32.5128 65.7137 32.3441 65.7227 32.3353 65.7315Z" fill="#B5DFF5"/>
<path d="M32.6546 65.7315C32.5835 65.8026 32.7523 65.7936 32.7611 65.7848C32.8322 65.7137 32.6634 65.7227 32.6546 65.7315Z" fill="#54B8E7"/>
<path d="M44.9569 65.7315C44.8858 65.8026 45.0545 65.7936 45.0633 65.7848C45.1344 65.7137 44.9657 65.7227 44.9569 65.7315Z" fill="#D1F1FE"/>
<path d="M33.1336 65.8916C33.0625 65.9627 33.2313 65.9538 33.2401 65.945C33.3112 65.8739 33.1424 65.8828 33.1336 65.8916Z" fill="#B5DFF5"/>
<path d="M44.1576 65.8916C44.0865 65.9627 44.2552 65.9538 44.264 65.945C44.3351 65.8739 44.1664 65.8828 44.1576 65.8916Z" fill="#A5D9F2"/>
<path d="M33.9858 65.998V66.1578H34.4652C34.2658 66.0484 34.2178 66.0381 33.9858 65.998Z" fill="#C0ECF9"/>
<path d="M34.5716 66.0508C34.5005 66.1219 34.6693 66.1129 34.678 66.1042C34.7491 66.0331 34.5804 66.042 34.5716 66.0508Z" fill="#6FC1E9"/>
<path d="M43.1991 66.0508C43.128 66.1219 43.2967 66.1129 43.3055 66.1042C43.3766 66.0331 43.2079 66.042 43.1991 66.0508Z" fill="#88CBEC"/>
<path d="M43.5189 66.0508C43.4478 66.1219 43.6165 66.1129 43.6253 66.1042C43.6964 66.0331 43.5277 66.042 43.5189 66.0508Z" fill="#C0ECF9"/>
<path d="M35.3705 66.2109C35.2994 66.282 35.4681 66.2731 35.4769 66.2643C35.548 66.1932 35.3793 66.2022 35.3705 66.2109Z" fill="#B5DFF5"/>
<path d="M35.6898 66.2109C35.6187 66.282 35.7874 66.2731 35.7962 66.2643C35.8673 66.1932 35.6986 66.2022 35.6898 66.2109Z" fill="#88CBEC"/>
<path d="M41.9746 66.1572V66.317H42.4539C42.2545 66.2076 42.2066 66.1973 41.9746 66.1572Z" fill="#6FC1E9"/>
<path d="M42.4538 66.1572V66.317H42.9331C42.7337 66.2076 42.6858 66.1973 42.4538 66.1572ZM36.8618 66.317V66.4768H37.3411C37.1417 66.3673 37.0938 66.3571 36.8618 66.317Z" fill="#C0ECF9"/>
<path d="M37.3413 66.3174V66.4772H38.1402C37.8575 66.3527 37.6551 66.3314 37.3413 66.3174Z" fill="#6FC1E9"/>
<path d="M38.1401 66.3176V66.4774H40.2172C39.5846 66.212 38.8212 66.3176 38.1401 66.3176Z" fill="#54B8E7"/>
<path d="M40.2168 66.3174V66.4772H41.0157C40.733 66.3527 40.5306 66.3314 40.2168 66.3174Z" fill="#88CBEC"/>
<path d="M41.0156 66.3174V66.4772H41.4949C41.2955 66.3677 41.2476 66.3575 41.0156 66.3174Z" fill="#B5DFF5"/>
</svg>
